<svg xmlns="http://www.w3.org/2000/svg" width="108" height="19" viewBox="0 0 108 19">
    <path fill="#464646" fill-rule="nonzero" d="M19.748.648V18h-2.844V6.792c0-.448.024-.932.072-1.452l-5.244 9.852c-.248.472-.628.708-1.14.708h-.456c-.512 0-.892-.236-1.14-.708L3.692 5.304c.024.264.044.524.06.78s.024.492.024.708V18H.932V.648h2.436c.144 0 .268.004.372.012.104.008.198.028.282.06.084.032.16.084.228.156s.134.168.198.288L9.644 10.8c.136.256.262.52.378.792.116.272.23.552.342.84.112-.296.228-.582.348-.858.12-.276.248-.542.384-.798l5.124-9.612c.064-.12.132-.216.204-.288a.667.667 0 0 1 .234-.156c.084-.032.178-.052.282-.06.104-.008.228-.012.372-.012h2.436zm9.9 12.096c-.856.04-1.576.114-2.16.222-.584.108-1.052.246-1.404.414-.352.168-.604.364-.756.588a1.277 1.277 0 0 0-.228.732c0 .52.154.892.462 1.116.308.224.71.336 1.206.336.608 0 1.134-.11 1.578-.33.444-.22.878-.554 1.302-1.002v-2.076zm-6.792-5.34c1.416-1.296 3.12-1.944 5.112-1.944.72 0 1.364.118 1.932.354a4.082 4.082 0 0 1 1.44.984c.392.42.69.922.894 1.506.204.584.306 1.224.306 1.92V18h-1.344c-.28 0-.496-.042-.648-.126-.152-.084-.272-.254-.36-.51l-.264-.888c-.312.28-.616.526-.912.738-.296.212-.604.39-.924.534-.32.144-.662.254-1.026.33a5.911 5.911 0 0 1-1.206.114c-.52 0-1-.07-1.44-.21-.44-.14-.82-.35-1.14-.63a2.828 2.828 0 0 1-.744-1.044c-.176-.416-.264-.9-.264-1.452 0-.312.052-.622.156-.93.104-.308.274-.602.51-.882s.542-.544.918-.792a5.965 5.965 0 0 1 1.386-.648 11.975 11.975 0 0 1 1.914-.45c.728-.116 1.56-.186 2.496-.21v-.72c0-.824-.176-1.434-.528-1.83-.352-.396-.86-.594-1.524-.594-.48 0-.878.056-1.194.168a4.913 4.913 0 0 0-.834.378c-.24.14-.458.266-.654.378a1.295 1.295 0 0 1-.654.168.855.855 0 0 1-.528-.162 1.354 1.354 0 0 1-.348-.378l-.528-.948zm15.264.42c.384-.736.84-1.314 1.368-1.734.528-.42 1.152-.63 1.872-.63.568 0 1.024.124 1.368.372l-.192 2.22c-.04.144-.098.246-.174.306a.48.48 0 0 1-.306.09c-.12 0-.298-.02-.534-.06a4.126 4.126 0 0 0-.69-.06c-.328 0-.62.048-.876.144a2.203 2.203 0 0 0-.69.414c-.204.18-.384.398-.54.654a6.381 6.381 0 0 0-.438.876V18h-2.964V5.688h1.74c.304 0 .516.054.636.162.12.108.2.302.24.582l.18 1.392zM47.24.168V10.38h.552c.2 0 .358-.026.474-.078.116-.052.234-.158.354-.318l3.06-3.78c.128-.168.27-.296.426-.384.156-.088.358-.132.606-.132h2.712l-3.828 4.572a3.18 3.18 0 0 1-.888.828c.168.12.318.26.45.42.132.16.258.332.378.516L55.64 18h-2.676c-.232 0-.432-.038-.6-.114a.93.93 0 0 1-.42-.414L48.8 12.804c-.112-.184-.228-.304-.348-.36-.12-.056-.3-.084-.54-.084h-.672V18h-2.964V.168h2.964zm17.796 10.26c0-.384-.054-.746-.162-1.086a2.581 2.581 0 0 0-.486-.894 2.26 2.26 0 0 0-.822-.606 2.821 2.821 0 0 0-1.158-.222c-.856 0-1.53.244-2.022.732-.492.488-.806 1.18-.942 2.076h5.592zm-5.652 1.788c.048.632.16 1.178.336 1.638.176.46.408.84.696 1.14.288.3.63.524 1.026.672.396.148.834.222 1.314.222.48 0 .894-.056 1.242-.168.348-.112.652-.236.912-.372s.488-.26.684-.372c.196-.112.386-.168.57-.168.248 0 .432.092.552.276l.852 1.08a4.94 4.94 0 0 1-1.104.966c-.408.26-.834.468-1.278.624a6.985 6.985 0 0 1-1.356.33 9.71 9.71 0 0 1-1.338.096 6.577 6.577 0 0 1-2.388-.426 5.346 5.346 0 0 1-1.92-1.26c-.544-.556-.972-1.244-1.284-2.064-.312-.82-.468-1.77-.468-2.85 0-.84.136-1.63.408-2.37a5.699 5.699 0 0 1 1.17-1.932 5.508 5.508 0 0 1 1.86-1.302c.732-.32 1.558-.48 2.478-.48.776 0 1.492.124 2.148.372a4.68 4.68 0 0 1 1.692 1.086 5.03 5.03 0 0 1 1.11 1.752c.268.692.402 1.482.402 2.37 0 .448-.048.75-.144.906-.096.156-.28.234-.552.234h-7.62zM82.34 18h-2.964V7.908h-5.712v6.672c0 .384.094.684.282.9.188.216.446.324.774.324.184 0 .338-.022.462-.066.124-.044.232-.09.324-.138.092-.048.174-.094.246-.138a.411.411 0 0 1 .216-.066.34.34 0 0 1 .216.066c.056.044.116.11.18.198l.888 1.44c-.432.36-.928.632-1.488.816-.56.184-1.14.276-1.74.276-1.072 0-1.894-.302-2.466-.906-.572-.604-.858-1.438-.858-2.502V7.908h-1.26a.578.578 0 0 1-.408-.156c-.112-.104-.168-.26-.168-.468V6.108l1.98-.336.624-3.348a.658.658 0 0 1 .228-.372.678.678 0 0 1 .432-.132h1.536v3.876h8.676V18zm.516-15.948c0 .256-.052.498-.156.726a1.956 1.956 0 0 1-.414.594 1.96 1.96 0 0 1-1.362.552c-.256 0-.496-.05-.72-.15a1.923 1.923 0 0 1-.99-.996c-.1-.228-.15-.47-.15-.726 0-.264.05-.51.15-.738a2 2 0 0 1 .402-.6c.168-.172.364-.308.588-.408.224-.1.464-.15.72-.15.264 0 .514.05.75.15.236.1.44.236.612.408s.31.372.414.6c.104.228.156.474.156.738zM88.328.168V10.38h.552c.2 0 .358-.026.474-.078.116-.052.234-.158.354-.318l3.06-3.78c.128-.168.27-.296.426-.384.156-.088.358-.132.606-.132h2.712l-3.828 4.572a3.18 3.18 0 0 1-.888.828c.168.12.318.26.45.42.132.16.258.332.378.516L96.728 18h-2.676c-.232 0-.432-.038-.6-.114a.93.93 0 0 1-.42-.414l-3.144-4.668c-.112-.184-.228-.304-.348-.36-.12-.056-.3-.084-.54-.084h-.672V18h-2.964V.168h2.964zm16.368 12.576c-.856.04-1.576.114-2.16.222-.584.108-1.052.246-1.404.414-.352.168-.604.364-.756.588a1.277 1.277 0 0 0-.228.732c0 .52.154.892.462 1.116.308.224.71.336 1.206.336.608 0 1.134-.11 1.578-.33.444-.22.878-.554 1.302-1.002v-2.076zm-6.792-5.34c1.416-1.296 3.12-1.944 5.112-1.944.72 0 1.364.118 1.932.354a4.082 4.082 0 0 1 1.44.984c.392.42.69.922.894 1.506.204.584.306 1.224.306 1.92V18h-1.344c-.28 0-.496-.042-.648-.126-.152-.084-.272-.254-.36-.51l-.264-.888c-.312.28-.616.526-.912.738-.296.212-.604.39-.924.534-.32.144-.662.254-1.026.33a5.911 5.911 0 0 1-1.206.114c-.52 0-1-.07-1.44-.21-.44-.14-.82-.35-1.14-.63a2.828 2.828 0 0 1-.744-1.044c-.176-.416-.264-.9-.264-1.452 0-.312.052-.622.156-.93.104-.308.274-.602.51-.882s.542-.544.918-.792a5.965 5.965 0 0 1 1.386-.648 11.975 11.975 0 0 1 1.914-.45c.728-.116 1.56-.186 2.496-.21v-.72c0-.824-.176-1.434-.528-1.83-.352-.396-.86-.594-1.524-.594-.48 0-.878.056-1.194.168a4.913 4.913 0 0 0-.834.378c-.24.14-.458.266-.654.378a1.295 1.295 0 0 1-.654.168.855.855 0 0 1-.528-.162 1.354 1.354 0 0 1-.348-.378l-.528-.948z"/>
</svg>
